<svg xmlns="http://www.w3.org/2000/svg">

  <symbol id="logo" viewBox="0 0 63.31 69.32">
    <path d="M36,50.85a6.76,6.76,0,1,0,0-13.51H27.66A15.34,15.34,0,0,1,16.74,33a10.68,10.68,0,0,1-3.23-7.7C13.6,18.71,20,13.51,28.15,13.51H29.6V9.57a2.82,2.82,0,1,1,5.63,0v3.94H36A6.76,6.76,0,1,0,36,0H28.15C12.55,0,.18,11.06,0,25.17A24.17,24.17,0,0,0,7.12,42.54a28.92,28.92,0,0,0,20.54,8.31Z"/>
    <path d="M56.2,26.86a28.87,28.87,0,0,0-20.5-8.29H27.38a6.74,6.74,0,0,0,0,13.49H35.7a15.31,15.31,0,0,1,10.9,4.28A10.66,10.66,0,0,1,49.82,44c-.09,6.62-6.5,11.81-14.61,11.81h-1v3.91a2.81,2.81,0,1,1-5.62,0V55.83H27.38a6.74,6.74,0,0,0,0,13.49h7.83c15.57,0,27.92-11,28.1-25.13A24.12,24.12,0,0,0,56.2,26.86Z"/>
  </symbol>

  <symbol id="menu-1">
    <path d="M24 6h-24v-4h24v4zm0 4h-24v4h24v-4zm0 8h-24v4h24v-4z"/>
  </symbol>

  <symbol id="magnifier-5">
    <path d="M23.832 19.641l-6.821-6.821c2.834-5.878-1.45-12.82-8.065-12.82-4.932 0-8.946 4.014-8.946 8.947 0 6.508 6.739 10.798 12.601 8.166l6.879 6.879c1.957.164 4.52-2.326 4.352-4.351zm-14.886-4.721c-3.293 0-5.973-2.68-5.973-5.973s2.68-5.973 5.973-5.973c3.294 0 5.974 2.68 5.974 5.973s-2.68 5.973-5.974 5.973z"/>
  </symbol>

  <symbol id="email-1">
    <path d="M12 12.713l-11.985-9.713h23.971l-11.986 9.713zm-5.425-1.822l-6.575-5.329v12.501l6.575-7.172zm10.85 0l6.575 7.172v-12.501l-6.575 5.329zm-1.557 1.261l-3.868 3.135-3.868-3.135-8.11 8.848h23.956l-8.11-8.848z"/>
  </symbol>

  <symbol id="gear-1">
    <path d="M24 13.616v-3.232c-1.651-.587-2.694-.752-3.219-2.019v-.001c-.527-1.271.1-2.134.847-3.707l-2.285-2.285c-1.561.742-2.433 1.375-3.707.847h-.001c-1.269-.526-1.435-1.576-2.019-3.219h-3.232c-.582 1.635-.749 2.692-2.019 3.219h-.001c-1.271.528-2.132-.098-3.707-.847l-2.285 2.285c.745 1.568 1.375 2.434.847 3.707-.527 1.271-1.584 1.438-3.219 2.02v3.232c1.632.58 2.692.749 3.219 2.019.53 1.282-.114 2.166-.847 3.707l2.285 2.286c1.562-.743 2.434-1.375 3.707-.847h.001c1.27.526 1.436 1.579 2.019 3.219h3.232c.582-1.636.75-2.69 2.027-3.222h.001c1.262-.524 2.12.101 3.698.851l2.285-2.286c-.744-1.563-1.375-2.433-.848-3.706.527-1.271 1.588-1.44 3.221-2.021zm-12 2.384c-2.209 0-4-1.791-4-4s1.791-4 4-4 4 1.791 4 4-1.791 4-4 4z"/>
  </symbol>

  <symbol id="help-1">
    <path d="M14.601 21.5c0 1.38-1.116 2.5-2.499 2.5-1.378 0-2.499-1.12-2.499-2.5s1.121-2.5 2.499-2.5c1.383 0 2.499 1.119 2.499 2.5zm-2.42-21.5c-4.029 0-7.06 2.693-7.06 8h3.955c0-2.304.906-4.189 3.024-4.189 1.247 0 2.57.828 2.684 2.411.123 1.666-.767 2.511-1.892 3.582-2.924 2.78-2.816 4.049-2.816 7.196h3.943c0-1.452-.157-2.508 1.838-4.659 1.331-1.436 2.986-3.222 3.021-5.943.047-3.963-2.751-6.398-6.697-6.398z"/>
  </symbol>

  <symbol id="bell-1">
    <path d="M15.137 3.945c-.644-.374-1.042-1.07-1.041-1.82v-.003c.001-1.172-.938-2.122-2.096-2.122s-2.097.95-2.097 2.122v.003c.001.751-.396 1.446-1.041 1.82-4.667 2.712-1.985 11.715-6.862 13.306v1.749h20v-1.749c-4.877-1.591-2.195-10.594-6.863-13.306zm-3.137-2.945c.552 0 1 .449 1 1 0 .552-.448 1-1 1s-1-.448-1-1c0-.551.448-1 1-1zm3 20c0 1.598-1.392 3-2.971 3s-3.029-1.402-3.029-3h6z"/>
  </symbol>

  <symbol id="user-20">
    <path d="M12 0c-6.627 0-12 5.373-12 12s5.373 12 12 12 12-5.373 12-12-5.373-12-12-12zm7.753 18.305c-.261-.586-.789-.991-1.871-1.241-2.293-.529-4.428-.993-3.393-2.945 3.145-5.942.833-9.119-2.489-9.119-3.388 0-5.644 3.299-2.489 9.119 1.066 1.964-1.148 2.427-3.393 2.945-1.084.25-1.608.658-1.867 1.246-1.405-1.723-2.251-3.919-2.251-6.31 0-5.514 4.486-10 10-10s10 4.486 10 10c0 2.389-.845 4.583-2.247 6.305z"/>
  </symbol>

  <symbol id="phone-6">
    <path d="M14.89 23.654c-7.367 3.367-18.802-18.86-11.601-22.615l2.107-1.039 3.492 6.817-2.082 1.026c-2.189 1.174 2.37 10.08 4.609 8.994.091-.041 2.057-1.007 2.064-1.011l3.521 6.795c-.008.004-1.989.978-2.11 1.033zm-1.538-13.409l2.917.87c.223-.747.16-1.579-.24-2.317-.399-.739-1.062-1.247-1.808-1.469l-.869 2.916zm1.804-6.058c1.551.462 2.926 1.516 3.756 3.051.831 1.536.96 3.263.498 4.813l-1.795-.535c.325-1.091.233-2.306-.352-3.387-.583-1.081-1.551-1.822-2.643-2.146l.536-1.796zm.95-3.187c2.365.705 4.463 2.312 5.729 4.656 1.269 2.343 1.466 4.978.761 7.344l-1.84-.548c.564-1.895.406-4.006-.608-5.882-1.016-1.877-2.696-3.165-4.591-3.729l.549-1.841z"/>
  </symbol>

  <symbol id="chart-5">
    <path d="M7 24h-6v-6h6v6zm8-9h-6v9h6v-9zm8-4h-6v13h6v-13zm0-11l-6 1.221 1.716 1.708-6.85 6.733-3.001-3.002-7.841 7.797 1.41 1.418 6.427-6.39 2.991 2.993 8.28-8.137 1.667 1.66 1.201-6.001z"/>
  </symbol>

  <symbol id="_dashboard" viewBox="0 0 44.61 44.61">
    <circle class="cls-1" cx="22.31" cy="22.31" r="21.31"/><path class="cls-2" d="M34.08,11.74a15.81,15.81,0,0,1,3.84,10.35"/><path class="cls-2" d="M6.18,22.09A15.88,15.88,0,0,1,30,8.34"/><path class="cls-2" d="M7.87,29.2a15.79,15.79,0,0,1-1-2.87"/><path class="cls-2" d="M16.89,37.4a15.77,15.77,0,0,1-4.6-2.71"/><path class="cls-2" d="M27.83,37.36a15.77,15.77,0,0,1-5.27.88"/><path class="cls-2" d="M36.67,29.45a15.77,15.77,0,0,1-3.22,4.26"/><path class="cls-3" d="M19.34,19.61C20.67,18,33.78,7.91,33.78,7.91S26.61,22.8,25.27,24.44a3.83,3.83,0,1,1-5.94-4.83Z"/><path class="cls-3" d="M22.31,22.31"/>
  </symbol>

  <symbol id="calendar-4">
    <path d="M20 20h-4v-4h4v4zm-6-10h-4v4h4v-4zm6 0h-4v4h4v-4zm-12 6h-4v4h4v-4zm6 0h-4v4h4v-4zm-6-6h-4v4h4v-4zm16-8v22h-24v-22h3v1c0 1.103.897 2 2 2s2-.897 2-2v-1h10v1c0 1.103.897 2 2 2s2-.897 2-2v-1h3zm-2 6h-20v14h20v-14zm-2-7c0-.552-.447-1-1-1s-1 .448-1 1v2c0 .552.447 1 1 1s1-.448 1-1v-2zm-14 2c0 .552-.447 1-1 1s-1-.448-1-1v-2c0-.552.447-1 1-1s1 .448 1 1v2z"/>
  </symbol>

  <symbol id="calendar-9">
    <path d="M17 3v-2c0-.552.447-1 1-1s1 .448 1 1v2c0 .552-.447 1-1 1s-1-.448-1-1zm-12 1c.553 0 1-.448 1-1v-2c0-.552-.447-1-1-1-.553 0-1 .448-1 1v2c0 .552.447 1 1 1zm13 13v-3h-1v4h3v-1h-2zm-5 .5c0 2.481 2.019 4.5 4.5 4.5s4.5-2.019 4.5-4.5-2.019-4.5-4.5-4.5-4.5 2.019-4.5 4.5zm11 0c0 3.59-2.91 6.5-6.5 6.5s-6.5-2.91-6.5-6.5 2.91-6.5 6.5-6.5 6.5 2.91 6.5 6.5zm-14.237 3.5h-7.763v-13h19v1.763c.727.33 1.399.757 2 1.268v-9.031h-3v1c0 1.316-1.278 2.339-2.658 1.894-.831-.268-1.342-1.111-1.342-1.984v-.91h-9v1c0 1.316-1.278 2.339-2.658 1.894-.831-.268-1.342-1.111-1.342-1.984v-.91h-3v21h11.031c-.511-.601-.938-1.273-1.268-2z"/>
  </symbol>

  <symbol id="phone-1">
    <path d="M20 22.621l-3.521-6.795c-.008.004-1.974.97-2.064 1.011-2.24 1.086-6.799-7.82-4.609-8.994l2.083-1.026-3.493-6.817-2.106 1.039c-7.202 3.755 4.233 25.982 11.6 22.615.121-.055 2.102-1.029 2.11-1.033z"/>
  </symbol>

  <symbol id="sms-6">
    <path d="M15.454 0c-3.457 0-6.546 2.309-6.546 5.467 0 1.12.403 2.221 1.117 3.073.029 1.001-.558 2.435-1.088 3.479 1.419-.258 3.438-.824 4.352-1.385.772.188 1.514.274 2.213.274 3.865 0 6.498-2.643 6.498-5.442 0-3.173-3.11-5.466-6.546-5.466zm-2.308 6.756c-.207.165-.498.248-.869.248-.318 0-.602-.061-.846-.184l.137-.542c.248.125.497.188.752.188.146 0 .26-.027.342-.083.158-.107.168-.323.012-.446-.074-.058-.201-.118-.385-.179-.549-.183-.822-.468-.822-.858 0-.252.102-.459.303-.622s.471-.244.807-.244c.293 0 .547.049.768.149l-.15.524c-.199-.094-.41-.14-.627-.14-.133 0-.237.026-.312.077-.15.102-.146.285-.018.394.062.053.213.123.455.208.266.094.459.21.584.349.123.139.184.311.184.517-.002.264-.106.479-.315.644zm3.32.201c-.046-1.141-.067-1.915-.067-2.321h-.014c-.069.306-.303 1.064-.699 2.274h-.516c-.238-.834-.59-2.273-.59-2.273h-.008l-.102 2.321h-.615l.184-2.875h.895l.508 1.983.613-1.983h.906l.154 2.875h-.649zm2.782-.188c-.209.167-.505.251-.879.251-.304 0-.59-.054-.863-.19l.145-.574c.24.123.486.195.761.195.143 0 .255-.027.333-.081.151-.102.157-.305.012-.42-.073-.057-.2-.116-.379-.177-.555-.184-.836-.477-.836-.872 0-.255.105-.469.311-.634.203-.165.478-.248.815-.248.294 0 .554.05.774.15l.012.006-.158.556c-.202-.095-.404-.147-.637-.147-.129 0-.232.025-.305.074-.141.096-.139.267-.016.369.061.051.212.121.449.205.268.094.466.213.59.353.125.142.189.318.189.527 0 .268-.107.489-.318.657zm-7.248 6.548v4.683h-8v-10h3.414c-.508-1.259-.657-2.614-.338-4h-3.076c-1.105 0-2 .896-2 2v14.678c-.002 2.213 2.503 3.322 6.006 3.322 3.498 0 5.994-1.106 5.994-3.322v-8.068c-.625.343-1.188.546-2 .707zm-4 8.683c-.553 0-1-.448-1-1s.447-1 1-1 1 .448 1 1-.447 1-1 1z"/>
  </symbol>

  <symbol id="user-29">
    <path d="M17.997 18h-11.995l-.002-.623c0-1.259.1-1.986 1.588-2.33 1.684-.389 3.344-.736 2.545-2.209-2.366-4.363-.674-6.838 1.866-6.838 2.491 0 4.226 2.383 1.866 6.839-.775 1.464.826 1.812 2.545 2.209 1.49.344 1.589 1.072 1.589 2.333l-.002.619zm4.811-2.214c-1.29-.298-2.49-.559-1.909-1.657 1.769-3.342.469-5.129-1.4-5.129-1.265 0-2.248.817-2.248 2.324 0 3.903 2.268 1.77 2.246 6.676h4.501l.002-.463c0-.946-.074-1.493-1.192-1.751zm-22.806 2.214h4.501c-.021-4.906 2.246-2.772 2.246-6.676 0-1.507-.983-2.324-2.248-2.324-1.869 0-3.169 1.787-1.399 5.129.581 1.099-.619 1.359-1.909 1.657-1.119.258-1.193.805-1.193 1.751l.002.463z"/>
  </symbol>

  <symbol id="calendar-6">
    <path d="M24 2v22h-24v-22h3v1c0 1.103.897 2 2 2s2-.897 2-2v-1h10v1c0 1.103.897 2 2 2s2-.897 2-2v-1h3zm-2 6h-20v14h20v-14zm-2-7c0-.552-.447-1-1-1s-1 .448-1 1v2c0 .552.447 1 1 1s1-.448 1-1v-2zm-14 2c0 .552-.447 1-1 1s-1-.448-1-1v-2c0-.552.447-1 1-1s1 .448 1 1v2zm1 11.729l.855-.791c1 .484 1.635.852 2.76 1.654 2.113-2.399 3.511-3.616 6.106-5.231l.279.64c-2.141 1.869-3.709 3.949-5.967 7.999-1.393-1.64-2.322-2.686-4.033-4.271z"/>
  </symbol>

  <symbol id="wrench-25">
    <path d="M5.496 1.261l3.77 3.771c.409 1.889-2.33 4.66-4.242 4.242l-3.77-3.771c-.172.585-.254 1.189-.254 1.793 0 1.602.603 3.202 1.826 4.426 1.351 1.351 3.164 1.957 4.931 1.821.933-.072 1.852.269 2.514.931l7.621 7.611c.577.578 1.337.915 2.096.915 1.661 0 3.047-1.411 3.012-3.077-.016-.737-.352-1.47-.914-2.033l-7.621-7.612c-.662-.661-1.002-1.581-.931-2.514.137-1.767-.471-3.58-1.82-4.93-1.225-1.224-2.825-1.834-4.427-1.834-.603 0-1.207.09-1.791.261zm15.459 18.692c0 .553-.447 1-1 1-.553 0-1-.448-1-1s.447-1 1-1 1 .447 1 1z"/>
  </symbol>

  <symbol id="calculator-6">
    <path d="M20 2v20h-16v-20h16zm2-2h-20v24h20v-24zm-13 21h-4v-3h4v3zm0-4h-4v-3h4v3zm0-4h-4v-3h4v3zm5 8h-4v-3h4v3zm0-4h-4v-3h4v3zm0-4h-4v-3h4v3zm5 8h-4v-7h4v7zm0-8h-4v-3h4v3zm0-10h-14v5h14v-5z"/>
  </symbol>

  <symbol id="currency-3">
    <path d="M19 16.166c0-3.529-3.023-4.962-6-6.255v-4.653c1.42.052 2.85.453 4.16.914l.725-3.295c-1.814-.551-3.438-.803-4.885-.841v-2.036h-2v2.134c-3.891.535-5.969 2.975-5.969 5.7 0 3.857 3.558 5.126 5.969 5.919v4.712c-1.706-.019-3.592-.62-5.091-1.202l-.909 3.288c1.787.923 3.931 1.417 6 1.453v1.996h2v-2.105c3.312-.464 6.005-2.293 6-5.729zm-8-10.643v3.482c-1.611-.921-1.678-2.771 0-3.482zm2 12.601v-3.591c1.841 1.065 1.605 2.864 0 3.591z"/>
  </symbol>

  <symbol id="coin-6">
    <path d="M18 10c-3.313 0-6 2.687-6 6s2.687 6 6 6 6-2.687 6-6-2.687-6-6-6zm.5 8.474v.526h-.5v-.499c-.518-.009-1.053-.132-1.5-.363l.228-.822c.478.186 1.114.383 1.612.27.574-.13.692-.721.057-1.005-.465-.217-1.889-.402-1.889-1.622 0-.681.52-1.292 1.492-1.425v-.534h.5v.509c.362.01.768.073 1.221.21l-.181.824c-.384-.135-.808-.257-1.222-.232-.744.043-.81.688-.29.958.856.402 1.972.7 1.972 1.773.001.858-.672 1.315-1.5 1.432zm-7.911-5.474h-2.589v-2h3.765c-.484.602-.881 1.274-1.176 2zm-.589 3h-2v-2h2.264c-.166.641-.264 1.309-.264 2zm2.727-6h-4.727v-2h7v.589c-.839.341-1.604.822-2.273 1.411zm2.273-6h-7v-2h7v2zm0 3h-7v-2h7v2zm-4.411 12h-2.589v-2h2.069c.088.698.264 1.369.52 2zm-10.589-11h7v2h-7v-2zm0 3h7v2h-7v-2zm12.727 11h-4.727v-2h3.082c.438.753.994 1.428 1.645 2zm-12.727-5h7v2h-7v-2zm0 3h7v2h-7v-2zm0-6h7v2h-7v-2z"/>
  </symbol>

  <symbol id="time-16">
    <path d="M18.513 7.119c.958-1.143 1.487-2.577 1.487-4.036v-3.083h-16v3.083c0 1.459.528 2.892 1.487 4.035l3.087 3.68c.566.677.57 1.625.009 2.306l-3.13 3.794c-.937 1.136-1.453 2.555-1.453 3.995v3.107h16v-3.107c0-1.44-.517-2.858-1.453-3.994l-3.13-3.794c-.562-.681-.558-1.629.009-2.306l3.087-3.68zm-.513-4.12c0 1.101-.363 2.05-1.02 2.834l-.978 1.167h-8.004l-.978-1.167c-.66-.785-1.02-1.736-1.02-2.834h12zm-.996 15.172c.652.791.996 1.725.996 2.829h-1.061c-1.939-2-4.939-2-4.939-2s-3 0-4.939 2h-1.061c0-1.104.344-2.039.996-2.829l3.129-3.793c.342-.415.571-.886.711-1.377h.164v1h2v-1h.163c.141.491.369.962.711 1.376l3.13 3.794zm-6.004-1.171h2v1h-2v-1zm0-2h2v1h-2v-1z"/>
  </symbol>

  <symbol id="debit-4">
    <path d="M12 12h-4v-1h4v1zm0 1h-4v1h4v-1zm12-6v14h-20v-14h20zm-2 12v-10h-16v10h16zm-6.023-2l.682-.67.681.67.684-.67.681.67 1.295-1.295-.613-.702-.682.667-.682-.67-.683.67-.682-.67-.683.67-.682-.67-1.293 1.28.613.717.68-.667.684.67zm-7.977 0h4v-1h-4v1zm11-5v1h-4v-1h4zm1-1h-6v3h6v-3zm-18-6v14h1v-13h19v-1h-20zm-2-2v14h1v-13h19v-1h-20z"/>
  </symbol>

  <symbol id="user-21">
    <path d="M10.118 16.064c2.293-.529 4.428-.993 3.394-2.945-3.146-5.942-.834-9.119 2.488-9.119 3.388 0 5.644 3.299 2.488 9.119-1.065 1.964 1.149 2.427 3.394 2.945 1.986.459 2.118 1.43 2.118 3.111l-.003.825h-15.994c0-2.196-.176-3.407 2.115-3.936zm-10.116 3.936h6.001c-.028-6.542 2.995-3.697 2.995-8.901 0-2.009-1.311-3.099-2.998-3.099-2.492 0-4.226 2.383-1.866 6.839.775 1.464-.825 1.812-2.545 2.209-1.49.344-1.589 1.072-1.589 2.333l.002.619z"/>
  </symbol>

  <symbol id="log-out-17" fill-rule="evenodd" clip-rule="evenodd">
    <path d="M24 22h-20v-7h2v5h16v-16h-16v5h-2v-7h20v20zm-13-11v-4l6 5-6 5v-4h-11v-2h11z"/>
  </symbol>

  <symbol id="_notch">
    <path class="cls-1" d="M1.79,29.25H0V0H6.53a3.81,3.81,0,0,1,3.81,3.81V19a3.81,3.81,0,0,1-.74,2.26L4.86,27.7A3.81,3.81,0,0,1,1.79,29.25Z"></path>
  </symbol>

  <symbol id="arrow-65">
    <path d="M0 7.33l2.829-2.83 9.175 9.339 9.167-9.339 2.829 2.83-11.996 12.17z"/>
  </symbol>

  <symbol id="refresh-2">
    <path d="M13.5 2c-5.629 0-10.212 4.436-10.475 10h-3.025l4.537 5.917 4.463-5.917h-2.975c.26-3.902 3.508-7 7.475-7 4.136 0 7.5 3.364 7.5 7.5s-3.364 7.5-7.5 7.5c-2.381 0-4.502-1.119-5.876-2.854l-1.847 2.449c1.919 2.088 4.664 3.405 7.723 3.405 5.798 0 10.5-4.702 10.5-10.5s-4.702-10.5-10.5-10.5z"/>
  </symbol>

  <symbol id="arrow-25">
    <path d="M5 3l3.057-3 11.943 12-11.943 12-3.057-3 9-9z"/>
  </symbol>

  <symbol id="arrow-31">
    <path d="M0 3.795l2.995-2.98 11.132 11.185-11.132 11.186-2.995-2.981 8.167-8.205-8.167-8.205zm18.04 8.205l-8.167 8.205 2.995 2.98 11.132-11.185-11.132-11.186-2.995 2.98 8.167 8.206z"/>
  </symbol>

  <symbol id="arrow-60">
    <path d="M15 16v5l9-10.062-9-9.938v5c-14.069 1.711-19.348 15.107-10.606 16.981-3.804-2.936 3.251-7.441 10.606-6.981z"/>
  </symbol>

  <symbol id="speech-bubble-15">
    <path d="M24 1h-24v16.981h4v5.019l7-5.019h13z"/>
  </symbol>

  <symbol id="filter-2">
    <path d="M19.479 2l-7.479 12.543v5.924l-1-.6v-5.324l-7.479-12.543h15.958zm3.521-2h-23l9 15.094v5.906l5 3v-8.906l9-15.094z"/>
  </symbol>

  <symbol id="square-5">
    <path d="M19 2c1.654 0 3 1.346 3 3v14c0 1.654-1.346 3-3 3h-14c-1.654 0-3-1.346-3-3v-14c0-1.654 1.346-3 3-3h14zm0-2h-14c-2.762 0-5 2.239-5 5v14c0 2.761 2.238 5 5 5h14c2.762 0 5-2.239 5-5v-14c0-2.761-2.238-5-5-5z"/>
  </symbol>

  <symbol id="checkbox-9">
    <path d="M10.041 17l-4.5-4.319 1.395-1.435 3.08 2.937 7.021-7.183 1.422 1.409-8.418 8.591zm-5.041-15c-1.654 0-3 1.346-3 3v14c0 1.654 1.346 3 3 3h14c1.654 0 3-1.346 3-3v-14c0-1.654-1.346-3-3-3h-14zm19 3v14c0 2.761-2.238 5-5 5h-14c-2.762 0-5-2.239-5-5v-14c0-2.761 2.238-5 5-5h14c2.762 0 5 2.239 5 5z"/>
  </symbol>

  <symbol id="arrow-20">
    <path d="M13.025 1l-2.847 2.828 6.176 6.176h-16.354v3.992h16.354l-6.176 6.176 2.847 2.828 10.975-11z"/>
  </symbol>

  <symbol id="task-1">
    <path d="M22 2v20h-20v-20h20zm2-2h-24v24h24v-24zm-4 7h-8v1h8v-1zm0 5h-8v1h8v-1zm0 5h-8v1h8v-1zm-10.516-11.304l-.71-.696-2.553 2.607-1.539-1.452-.698.71 2.25 2.135 3.25-3.304zm0 5l-.71-.696-2.552 2.607-1.539-1.452-.698.709 2.249 2.136 3.25-3.304zm0 5l-.71-.696-2.552 2.607-1.539-1.452-.698.709 2.249 2.136 3.25-3.304z"/>
  </symbol>

  <symbol id="x-mark-1">
    <path d="M24 20.188l-8.315-8.209 8.2-8.282-3.697-3.697-8.212 8.318-8.31-8.203-3.666 3.666 8.321 8.24-8.206 8.313 3.666 3.666 8.237-8.318 8.285 8.203z"/>
  </symbol>

  <symbol id="pencil-14">
    <path d="M7.127 22.562l-7.127 1.438 1.438-7.128 5.689 5.69zm1.414-1.414l11.228-11.225-5.69-5.692-11.227 11.227 5.689 5.69zm9.768-21.148l-2.816 2.817 5.691 5.691 2.816-2.819-5.691-5.689z"/>
  </symbol>

  <symbol id="check-mark-1">
    <path d="M20.285 2l-11.285 11.567-5.286-5.011-3.714 3.716 9 8.728 15-15.285z"/>
  </symbol>

  <symbol id="pencil-16">
    <path d="M16.598 13.091l-5.69-5.688 7.402-7.403 5.69 5.689-7.402 7.402zm-16.598 10.909l7.126-1.436-5.688-5.689-1.438 7.125zm1.984-20.568l6.449 6.446-5.582 5.582 5.689 5.69 5.583-5.583 6.492 6.49 1.4-1.428-18.631-18.625-1.4 1.428z"/>
  </symbol>

  <symbol id="filter-8">
    <path d="M1 0h22l-9 14.094v9.906l-4-2v-7.906z"/>
  </symbol>

  <symbol id="check-mark-5">
    <path d="M12 2c5.514 0 10 4.486 10 10s-4.486 10-10 10-10-4.486-10-10 4.486-10 10-10zm0-2c-6.627 0-12 5.373-12 12s5.373 12 12 12 12-5.373 12-12-5.373-12-12-12zm4.393 7.5l-5.643 5.784-2.644-2.506-1.856 1.858 4.5 4.364 7.5-7.643-1.857-1.857z"/>
  </symbol>

  <symbol id="circle-2">
    <path d="M12 2c5.514 0 10 4.486 10 10s-4.486 10-10 10-10-4.486-10-10 4.486-10 10-10zm0-2c-6.627 0-12 5.373-12 12s5.373 12 12 12 12-5.373 12-12-5.373-12-12-12z"/>
  </symbol>

  <symbol id="user-32">
    <path d="M24 0v24h-24v-24h24zm-6.118 16.064c-2.293-.529-4.427-.993-3.394-2.945 3.146-5.942.834-9.119-2.488-9.119-3.388 0-5.643 3.299-2.488 9.119 1.064 1.963-1.15 2.427-3.394 2.945-2.048.473-2.124 1.49-2.118 3.269l.004.667h15.993l.003-.646c.007-1.792-.062-2.815-2.118-3.29z"/>
  </symbol>

  <symbol id="clipboard-5">
    <path d="M22 2v22h-20v-22h3c1.23 0 2.181-1.084 3-2h8c.82.916 1.771 2 3 2h3zm-11 1c0 .552.448 1 1 1 .553 0 1-.448 1-1s-.447-1-1-1c-.552 0-1 .448-1 1zm9 1h-4l-2 2h-3.897l-2.103-2h-4v18h16v-18zm-13 9.729l.855-.791c1 .484 1.635.852 2.76 1.654 2.113-2.399 3.511-3.616 6.106-5.231l.279.64c-2.141 1.869-3.709 3.949-5.967 7.999-1.393-1.64-2.322-2.686-4.033-4.271z"/>
  </symbol>

  <symbol id="media-control-48">
    <path d="M3 22v-20l18 10-18 10z"/>
  </symbol>

  <symbol id="hashtag-1">
    <path d="M22.548 9l.452-2h-5.364l1.364-6h-2l-1.364 6h-5l1.364-6h-2l-1.364 6h-6.184l-.452 2h6.182l-1.364 6h-5.36l-.458 2h5.364l-1.364 6h2l1.364-6h5l-1.364 6h2l1.364-6h6.185l.451-2h-6.182l1.364-6h5.366zm-8.73 6h-5l1.364-6h5l-1.364 6z"/>
  </symbol>

  <symbol id="video-15">
    <path d="M12 2c5.514 0 10 4.486 10 10s-4.486 10-10 10-10-4.486-10-10 4.486-10 10-10zm0-2c-6.627 0-12 5.373-12 12s5.373 12 12 12 12-5.373 12-12-5.373-12-12-12zm-3 17v-10l9 5.146-9 4.854z"/>
  </symbol>

  <symbol id="media-control-49">
    <path d="M11 22h-4v-20h4v20zm6-20h-4v20h4v-20z"/>
  </symbol>

  <symbol id="key-3">
    <path d="M12.451 17.337l-2.451 2.663h-2v2h-2v2h-6v-1.293l7.06-7.06c-.214-.26-.413-.533-.599-.815l-6.461 6.461v-2.293l6.865-6.949c1.08 2.424 3.095 4.336 5.586 5.286zm11.549-9.337c0 4.418-3.582 8-8 8s-8-3.582-8-8 3.582-8 8-8 8 3.582 8 8zm-3-3c0-1.104-.896-2-2-2s-2 .896-2 2 .896 2 2 2 2-.896 2-2z"/>
  </symbol>

  <symbol id="plus-thin" fill-rule="evenodd" clip-rule="evenodd">
    <path d="M11 11v-11h1v11h11v1h-11v11h-1v-11h-11v-1h11z"/>
  </symbol>

  <symbol id="shield-28">
    <path d="M15.762 8.047l-4.381 4.475-2.215-2.123-1.236 1.239 3.451 3.362 5.619-5.715-1.238-1.238zm-3.762-5.503c2.5 1.805 4.555 2.292 7 2.416v9.575c0 3.042-1.686 3.827-7 7.107-5.309-3.278-7-4.065-7-7.107v-9.575c2.447-.124 4.5-.611 7-2.416zm0-2.544c-3.371 2.866-5.484 3-9 3v11.535c0 4.603 3.203 5.804 9 9.465 5.797-3.661 9-4.862 9-9.465v-11.535c-3.516 0-5.629-.134-9-3z"/>
  </symbol>

  <symbol id="user-1">
    <path d="M20.822 18.096c-3.439-.794-6.64-1.49-5.09-4.418 4.72-8.912 1.251-13.678-3.732-13.678-5.082 0-8.464 4.949-3.732 13.678 1.597 2.945-1.725 3.641-5.09 4.418-3.073.71-3.188 2.236-3.178 4.904l.004 1h23.99l.004-.969c.012-2.688-.092-4.222-3.176-4.935z"/>
  </symbol>

  <symbol id="user-33" fill-rule="evenodd" clip-rule="evenodd">
    <path d="M24 24h-24v-24h24v24zm-2-22h-20v20h20v-20zm-4.118 14.064c-2.293-.529-4.427-.993-3.394-2.945 3.146-5.942.834-9.119-2.488-9.119-3.388 0-5.643 3.299-2.488 9.119 1.064 1.963-1.15 2.427-3.394 2.945-2.048.473-2.124 1.49-2.118 3.269l.004.667h15.993l.003-.646c.007-1.792-.062-2.815-2.118-3.29z"/>
  </symbol>

  <symbol id="delivery-8" fill-rule="evenodd" clip-rule="evenodd">
    <path d="M3.848 19h-.848c-.796 0-1.559-.316-2.121-.879-.563-.562-.879-1.325-.879-2.121v-3c0-7.175 5.377-13 12-13s12 5.825 12 13v3c0 .796-.316 1.559-.879 2.121-.562.563-1.325.879-2.121.879h-.848c-2.69 4.633-6.904 5-8.152 5-1.248 0-5.462-.367-8.152-5zm16.152-5.876c-.601.236-1.269-.18-1.269-.797 0-.304-.022-.61-.053-.915-1.761-.254-3.618-1.926-3.699-3.723-1.315 2.005-4.525 4.17-7.044 4.17 1.086-.699 1.839-2.773 1.903-3.508-.581 1.092-2.898 3.136-4.551 3.487l-.018.489c0 .619-.669 1.032-1.269.797v3.771c.287.256.632.464 1.041.594.225.072.412.224.521.424 2.206 4.046 5.426 4.087 6.438 4.087.929 0 3.719-.035 5.877-3.169-1.071.433-2.265.604-3.759.653-.37.6-1.18 1.016-2.118 1.016-1.288 0-2.333-.784-2.333-1.75s1.045-1.75 2.333-1.75c.933 0 1.738.411 2.112 1.005 1.9-.026 4.336-.334 5.888-2.645v-2.236zm-11-.624c.686 0 1.243.672 1.243 1.5s-.557 1.5-1.243 1.5-1.243-.672-1.243-1.5.557-1.5 1.243-1.5zm6 0c.686 0 1.243.672 1.243 1.5s-.557 1.5-1.243 1.5-1.243-.672-1.243-1.5.557-1.5 1.243-1.5zm5.478-1.5h1.357c-.856-5.118-4.937-9-9.835-9-4.898 0-8.979 3.882-9.835 9h1.357c.52-4.023 3.411-7.722 8.478-7.722s7.958 3.699 8.478 7.722z"/>
  </symbol>

  <symbol id="share-7">
    <path d="M10.848 15.932c-.399.781-.732 1.599-1.003 2.447-1.14-2.552-3.109-4.676-5.912-6.267l-1.463 2.656-2.47-5.881 6.33-1.126-1.433 2.601c2.606 1.472 4.593 3.349 5.951 5.57zm9.219-3.819l1.463 2.655 2.47-5.881-6.33-1.126 1.433 2.601c-5.339 3.017-8.103 7.72-8.103 13.638h2c0-5.144 2.405-9.241 7.067-11.887zm-8.025-12.113l-4.042 5h3v7.762c.352.409.684.831.991 1.269.312-.443.65-.87 1.009-1.286v-7.745h3l-3.958-5z"/>
  </symbol>

  <symbol id="eye-4">
    <path d="M12.015 7c4.751 0 8.063 3.012 9.504 4.636-1.401 1.837-4.713 5.364-9.504 5.364-4.42 0-7.93-3.536-9.478-5.407 1.493-1.647 4.817-4.593 9.478-4.593zm0-2c-7.569 0-12.015 6.551-12.015 6.551s4.835 7.449 12.015 7.449c7.733 0 11.985-7.449 11.985-7.449s-4.291-6.551-11.985-6.551zm-.015 5c1.103 0 2 .897 2 2s-.897 2-2 2-2-.897-2-2 .897-2 2-2zm0-2c-2.209 0-4 1.792-4 4 0 2.209 1.791 4 4 4s4-1.791 4-4c0-2.208-1.791-4-4-4z"/>
  </symbol>

  <symbol id="construction-3" fill-rule="evenodd" clip-rule="evenodd">
    <path d="M2.178 11h-1.178v-2.209c.468 0 .774-.474.944-.997.587-1.803 1.59-4.513 4.056-6.212v3.418c0 .552.448 1 1 1s1-.448 1-1v-4.437c.868-.309 1.861-.516 3-.585v3.022c0 .552.448 1 1 1s1-.448 1-1v-3c1.134.094 2.128.327 3 .661v4.339c0 .552.448 1 1 1s1-.448 1-1v-3.269c2.391 1.7 3.463 4.304 4.057 6.063.175.52.475.997.943.997v2.209h-1.179c.575.459 1.179 1.36 1.179 3.131 0 1.63-.904 3.686-2.877 4.531-2.153 3.445-5.027 5.338-8.123 5.338-3.096 0-5.97-1.893-8.124-5.338-1.973-.845-2.876-2.901-2.876-4.531 0-1.771.603-2.672 1.178-3.131zm12.022 7.459h-4.4c.004.012.626 1.74 2.2 1.74 1.634 0 2.196-1.728 2.2-1.74zm4.517-7.459h-13.435l-.013.515c0 .668-.682 1.114-1.288.844-.169-.075-.43-.073-.617.049-.917.601-.819 3.864 1.425 4.629.916.313 2.364 3.103 3.93.398.542-.934 2.251-1.039 3.281-.297 1.029-.742 2.739-.637 3.28.297 1.566 2.705 3.014-.085 3.93-.398 2.244-.765 2.342-4.028 1.425-4.629-.215-.14-.487-.106-.616-.049-.606.271-1.289-.176-1.289-.844l-.013-.515zm-9.696.996c-.634 0-1.146.62-1.146 1.385s.512 1.385 1.146 1.385c.632 0 1.146-.62 1.146-1.385s-.514-1.385-1.146-1.385zm7.104 1.385c0 .765-.513 1.385-1.146 1.385-.633 0-1.146-.62-1.146-1.385s.513-1.385 1.146-1.385c.633 0 1.146.62 1.146 1.385z"/>
  </symbol>

  <symbol id="building-20" fill-rule="evenodd" clip-rule="evenodd">
    <path d="M6 7v-7h13v10h5v14h-23v-17h5zm0 16v-4h-1v4h1zm8-4h-3v4h3v-4zm6 0h-1v4h1v-4zm2-7h-3v6h2v4h1v-10zm-5-10h-9v20h1v-5h7v5h1v-20zm-13 20v-4h2v-9h-3v13h1zm17-6h-1v-2h1v2zm-17-2h1v2h-1v-2zm8 1h-2v-2h2v2zm3 0h-2v-2h2v2zm-10-4v2h-1v-2h1zm7 1h-2v-2h2v2zm3 0h-2v-2h2v2zm-3-3h-2v-2h2v2zm3 0h-2v-2h2v2zm-3-3h-2v-2h2v2zm3 0h-2v-2h2v2z"/>
  </symbol>

  <symbol id="lock-7">
    <path d="M21 21v3h-18v-3h18zm-13-15c0-2.206 1.795-4 4-4s4 1.794 4 4v3h2v-3c0-3.313-2.687-6-6-6s-6 2.687-6 6v3h2v-3zm13 8v-3h-18v3h18zm0 5v-3h-18v3h18z"/>
  </symbol>
</svg>
